<svg xmlns="http://www.w3.org/2000/svg" viewBox="0 0 1081.64 305.17"><defs><style>.cls-1{fill:#4b50cf;}.cls-2{fill:#80e2d2;}.cls-3{fill:#5ba099;}.cls-4{fill:#6ec1b8;}</style></defs><title>Recurso 1</title><g id="Capa_2" data-name="Capa 2"><g id="Capa_1-2" data-name="Capa 1"><path class="cls-1" d="M646.18,263.64c-21,0-34.16-9.73-36.12-26.71-.8-6.33-.35-13.09,1.47-21.91,1.92-9.32,4.21-16.13,7.41-22.06,8.93-16.66,25.47-26.22,45.39-26.22,20.17,0,32.89,9.59,34.88,26.33.78,6.62.36,13.06-1.39,21.53a11.19,11.19,0,0,1-11.25,9.33H638.19c-.32,0-.46.06-.55.46a14.55,14.55,0,0,0-.13,5c.79,7.18,6.32,11.13,15.55,11.13,6.77,0,13.38-2.51,17.74-4.62a22.63,22.63,0,0,1,10-2.91,8.59,8.59,0,0,1,6.83,3,9.2,9.2,0,0,1,1.56,7.82,15.1,15.1,0,0,1-7.61,10A65.38,65.38,0,0,1,646.18,263.64Zm-4.38-58.88h29.93c.32,0,.47-.07.55-.47a20.36,20.36,0,0,0,.44-6.53c-.68-5.85-5.19-9.22-12.36-9.22S647.19,192,644,198.07a24.6,24.6,0,0,0-2.26,6.56c0,.05,0,.09,0,.12ZM540.21,263.64c-15.26,0-25.86-9.15-27.67-23.88-.85-6.73-.28-14.36,1.86-24.74s4.71-18,8.33-24.7c7.79-14.54,22-23.58,37.13-23.58,13,0,18.58,5.09,20.9,8.54l6.17-29.9c1.81-8.73,8.58-14.59,16.87-14.59,4,0,7.16,1.32,9.19,3.81,2.2,2.7,2.87,6.54,1.93,11.11l-21.13,102.4c-1.8,8.73-8.58,14.59-16.87,14.59-4.84,0-10.13-2.34-11.27-8.77C561.53,258,553.41,263.64,540.21,263.64Zm22.79-73c-6.67,0-12,3.49-15.56,10.1-1.78,3.3-3.36,8.23-4.68,14.65S541,226.72,541.4,230c.77,6.52,4.51,9.82,11.11,9.82s11.82-3.4,15.37-10.1c1.79-3.31,3.36-8.24,4.68-14.65s1.78-11.36,1.37-14.6C573.15,193.82,569.57,190.61,563,190.61Zm-165.84,73c-12.59,0-21.43-3-26.28-9-4-4.88-5.13-11.58-3.42-19.89,4-19.36,19.81-30,44.52-30h16.37c.32,0,.47-.07.55-.47l.2-.94c.71-3.46.23-6.24-1.42-8.27-2.32-2.84-6.89-4.28-13.61-4.28a47.83,47.83,0,0,0-14.94,2.59,24.23,24.23,0,0,1-6.76,1.36c-3.32,0-6-1.09-7.63-3.15s-2.25-5-1.55-8.39a15.94,15.94,0,0,1,9.42-11.13c5.38-2.44,14.82-5.34,29.29-5.34,13.94,0,23.9,3.54,29.59,10.52,5.25,6.44,6.7,15.59,4.31,27.18l-5.13,24.85c-.87,4.22-.9,6.14-.13,8.19l1.59,4.14a14,14,0,0,1,.7,8.18c-1.49,7.24-8.74,12.9-16.51,12.9-4.95,0-8.55-1.91-10.42-5.53l-1.16-2.33C418.63,260.37,408.42,263.64,397.16,263.64Zm14.78-39.71c-10.58,0-16.14,3.08-17.5,9.68-.51,2.44-.2,4.36.91,5.73,1.56,1.91,4.74,2.87,9.47,2.87,10.79,0,17.09-4,18.72-11.94l1.28-6.21a.37.37,0,0,0,0-.13h-12.9Zm75.2,38.77c-9.86,0-16.49-2.27-20.29-6.93-4-4.84-4.79-12.38-2.59-23.06l18-87.33c1.83-8.87,8.45-14.59,16.87-14.59,3.87,0,7.13,1.36,9.15,3.85,2.22,2.72,2.9,6.55,2,11.07l-17.55,85.08c-.54,2.59-.43,4.4.32,5.52a4.79,4.79,0,0,0,3.33,1.78c3.65.66,6.25,2.11,7.73,4.3s1.79,4.84,1.1,8.17c-1.57,7.6-7.89,12.14-16.92,12.14Zm-216-1.13c-3.86,0-6.88-1.2-8.72-3.46s-2.47-5.64-1.65-9.59l21.4-103.71c1.61-7.83,7.65-12.9,15.38-12.9h39.72c14.4,0,24.62,3.59,30.39,10.67,4.91,6,6.34,14.24,4.24,24.4-3.19,15.46-12.33,23.35-19.86,27.32,7.57,4,13.51,14.37,10.43,29.34-2.59,12.53-8.64,22.15-18,28.61-8.95,6.18-20.71,9.32-34.95,9.32Zm21.38-24.06h20.89c10.69,0,18-5.66,20-15.53.9-4.38.29-8-1.77-10.56-2.26-2.78-6.29-4.25-11.66-4.25H299.08c-.32,0-.47.07-.55.47l-6.14,29.74a.57.57,0,0,0,0,.12Zm11-53.27h19.38c10.34,0,17.35-5.24,19.24-14.39.86-4.2.33-7.51-1.57-9.85-2.15-2.63-6.12-4-11.49-4H309.64c-.33,0-.46.07-.55.46l-5.7,27.67a.32.32,0,0,0,0,.13Z"/><path class="cls-2" d="M934.37,263.64c-17.17,0-27.42-5.52-32-8.81-4.1-3-5.55-6.56-4.56-11.39a14.76,14.76,0,0,1,13.91-11.2c2.57,0,4.78.74,7.66,2.57,4.93,3.2,11.23,6.46,20.59,6.46,8.67,0,14-2.77,15-7.8a4.16,4.16,0,0,0-.39-3.44c-1.17-1.6-4.5-2.64-10.47-3.28l-9.75-1.13c-10.48-1.23-17.84-4.68-21.87-10.26-3.44-4.77-4.4-11-2.83-18.6,3.82-18.52,20.87-30,44.51-30,10.41,0,19.94,2.17,26.84,6.13,5.06,2.94,7,6.51,6,11.24a13.73,13.73,0,0,1-13.31,11c-2.13,0-4.22-.66-7.45-2.36A37.33,37.33,0,0,0,949,188.92c-4.93,0-11,1.12-12.14,6.49a4,4,0,0,0,.37,3.33c1.13,1.55,4.29,2.57,10,3.2l9.75,1.13c11,1.28,18.62,4.75,22.62,10.28,3.35,4.64,4.25,10.82,2.69,18.38C978.23,251.41,959.87,263.64,934.37,263.64Zm-99,0c-12.6,0-21.44-3-26.29-9-4-4.88-5.13-11.58-3.42-19.89,4-19.36,19.81-30,44.52-30h16.38c.33,0,.47-.07.55-.47l.19-.94c.71-3.46.24-6.24-1.42-8.27-2.31-2.84-6.89-4.28-13.6-4.28a47.9,47.9,0,0,0-14.95,2.59,24.16,24.16,0,0,1-6.76,1.36c-3.31,0-6-1.09-7.63-3.15s-2.25-5-1.55-8.39a15.94,15.94,0,0,1,9.42-11.13c5.38-2.44,14.83-5.34,29.29-5.34,14,0,23.9,3.54,29.59,10.52,5.25,6.44,6.7,15.59,4.31,27.18l-5.13,24.85c-.87,4.22-.9,6.14-.13,8.19l1.59,4.14a14,14,0,0,1,.71,8.18c-1.49,7.24-8.75,12.9-16.52,12.9-4.95,0-8.55-1.91-10.42-5.53L863,254.84C856.87,260.37,846.66,263.64,835.4,263.64Zm14.78-39.71c-10.58,0-16.15,3.08-17.51,9.68-.5,2.44-.19,4.36.91,5.73,1.56,1.91,4.75,2.87,9.47,2.87,10.79,0,17.09-4,18.73-11.94l1.28-6.21a1.23,1.23,0,0,1,0-.13h-12.9ZM749.37,263.64c-23.39,0-37.63-11.42-40.08-32.17-.89-8.58-.49-15.14,3.59-34.89s6.37-26.29,10.79-34.85c10.92-20.57,29.72-31.89,53-31.89,18.14,0,31.71,7.81,36.3,20.89a15.35,15.35,0,0,1,.77,8.72,16.62,16.62,0,0,1-16,13.09c-5.28,0-8.83-2.34-11.5-7.61-3.49-6.6-7.33-9-14.63-9-9.36,0-16.55,4.6-21.38,13.67-2.47,4.7-4,9.53-7.66,27.26s-4.12,22.54-3.59,27.22c1.07,8.88,6.27,13.38,15.46,13.38,7.32,0,12.37-2.48,18.65-9.15,4.79-5.2,9.07-7.42,14.32-7.42a10.52,10.52,0,0,1,10.86,13.43,20.72,20.72,0,0,1-4.31,8.62C784.07,255.92,767.4,263.64,749.37,263.64Zm304.75-.94c-3.88,0-7.13-1.37-9.15-3.85-2.22-2.72-2.9-6.55-2-11.08l8.55-41.41c1.1-5.35.54-9.59-1.64-12.25-1.78-2.2-4.62-3.31-8.44-3.31-8.54,0-14.63,5.79-16.72,15.9l-8.54,41.41c-1.8,8.73-8.58,14.59-16.86,14.59-4,0-7.16-1.32-9.2-3.81-2.2-2.7-2.86-6.55-1.92-11.12l21.13-102.39c1.83-8.87,8.45-14.59,16.86-14.59,3.88,0,7.13,1.36,9.16,3.85,2.21,2.72,2.89,6.55,2,11.07l-6.1,29.58a37.77,37.77,0,0,1,24.46-8.55c9.06,0,16.2,2.88,20.65,8.33,5.06,6.22,6.53,15.4,4.23,26.55l-9.6,46.49C1069.18,256.84,1062.41,262.7,1054.12,262.7Z"/><rect class="cls-3" x="179.5" y="41.65" width="55.14" height="100.72" transform="translate(325.7 -101.05) rotate(97.61)"/><rect class="cls-4" x="136.86" y="1.96" width="55.14" height="100.72" transform="translate(107.33 -110.52) rotate(53.03)"/><rect class="cls-2" x="68.33" y="25.82" width="55.14" height="100.72" transform="translate(-12.48 19.13) rotate(-10.7)"/><path class="cls-1" d="M225.68,164.67,48.19,78.42A2.77,2.77,0,0,0,44.5,79.7c-4.65,9.57-3.33,19,3.33,26.49L.72,236.15a12,12,0,0,0,6,14.81l109.07,53a11.92,11.92,0,0,0,15.36-4.43l73.08-117.41c10,.54,18.09-4.24,22.72-13.76A2.76,2.76,0,0,0,225.68,164.67Zm-59,19.3c-13,26.8-45.19,38.12-71.69,25.24s-37.48-45.16-24.46-72A6.63,6.63,0,1,1,82.47,143c-9.79,20.16-1.54,44.44,18.39,54.13s44.13,1.17,53.92-19A6.63,6.63,0,1,1,166.7,184Z"/></g></g></svg>